#!OML:ASF F:\VICON\USERDATA\INSTALL\rory3\rory3.ASF
:FULLY-SPECIFIED
:DEGREES
1
root 0.05578406867269492 17.59420588233042 -32.06218217083524 5.438582100846284 -6.202549728237724 -0.971175515896811
lfemur -1.6526679100237054 0.024611952512621604 -23.642394270870724
ltibia 81.15418987951091
lfoot 33.63988168916055 -19.385086570955156
ltoes 2.089994998788896
rfemur -35.012490672397526 5.483084276879582 28.488000966536973
rtibia 41.546605755261474
rfoot -8.268641197939328 -3.055325759335507
rtoes 9.64803634646275
lowerback 17.32398666854692 -0.9135804705875822 -0.8102950373003339
upperback -0.5970678519144319 -1.1077680134707801 2.610760205989026
thorax -10.344685527556468 -0.3996992421597855 3.6043550486073905
lowerneck -17.728205988293375 -1.9389127740658294 -2.8966635865684025
upperneck 10.053392282592734 -2.2065637191697554 2.0903884496562344
head 5.98287782729441 -1.0150421343606382 0.9105742942842465
lclavicle -1.5444325613006536e-15 -3.296202321605395e-15
lhumerus -41.45490518420264 -16.422679063449344 95.7117863863872
lradius 108.27000486808183
lwrist 29.817003761201686
lhand -21.871811512036263 3.876457823519287
lfingers 7.12502
lthumb 4.532568450751687 33.80799791878435
rclavicle -1.5444325613006536e-15 -3.296202321605395e-15
rhumerus -58.367592315203844 9.71266299797912 -93.94041089960226
rradius 98.30791166516639
rwrist -18.65801399874193
rhand -23.23557887034654 43.50278817487844
rfingers 7.12502
rthumb 3.2155611412825333 13.547288341157314
2
root 0.022617260259739758 17.43210861314772 -31.12738252219176 5.225403280690416 -5.9832201300086325 -2.310910805032873
lfemur -6.235044911294523 1.4038057024955952 -19.740000174587728
ltibia 89.0509886206568
lfoot 33.75768331542854 -17.794688241748005
ltoes -0.21514711492949878
rfemur -33.651991816674276 8.326857762807844 29.913598344717432
rtibia 46.16760465967388
rfoot -12.382488994464225 -7.806146449383058
rtoes 9.09028673537473
lowerback 17.968983538836675 -0.936406348324997 0.23596277695264978
upperback -0.39905240565246763 -0.8845260985521155 2.903607847273948
thorax -10.518383665770221 -0.3394729095795176 3.2861262855038125
lowerneck -18.091103746499297 -1.9412626630069272 -3.041269809201024
upperneck 10.496589906396412 -2.2289036715428874 2.4893656100841888
head 6.19120483188412 -0.9958692335715205 1.0568278467139756
lclavicle -1.5444324981200335e-15 -3.2962023775369867e-15
lhumerus -42.05810488985643 -14.413083435248048 95.56888699141919
lradius 103.99500972887543
lwrist 29.948003398879266
lhand -22.87290773898583 3.397559541199788
lfingers 7.12502
lthumb 3.5658822790303963 33.3474995762359
rclavicle -1.5444324981200335e-15 -3.2962023775369867e-15
rhumerus -54.23469566256352 11.45830034699932 -95.513006563917
rradius 97.37601351065668
rwrist -21.030205392532192
rhand -21.631586029968325 42.30779156209756
rfingers 7.12502
rthumb 4.7644840372420525 12.381291884505625
3
root -6.726779352206336e-06 17.27571126277926 -30.21818337734014 5.377172410822247 -4.897892435746964 -4.418551891753575
lfemur -11.922102446846568 2.333693984071728 -14.805807752836154
ltibia 96.15658456138783
lfoot 32.330482720250345 -18.53608762254867
ltoes 2.5407040616456715
rfemur -31.505992047489038 9.686134549491335 32.48999357985717
rtibia 48.929004222433484
rfoot -16.483986263875256 -11.303889619211372
rtoes 7.216448271046354
lowerback 18.090882801216814 -1.0708962705293272 2.371728205926231
upperback 0.13632466789163833 -0.5765483862815381 3.3809741004867657
thorax -10.027988911972312 -0.29582837744762425 2.4973898780801664
lowerneck -20.361689763778262 -2.3133504168570815 -3.214025321134814
upperneck 11.699183635919132 -2.733081214128498 3.074751606503817
head 6.977783558734116 -1.1730405940617934 1.2041343763786947
lclavicle -1.5444326117196017e-15 -3.2962022863441273e-15
lhumerus -41.89180488638388 -12.865087146451373 95.31108719312196
lradius 99.96021464877606
lwrist 30.009503180721623
lhand -23.13380668693093 3.760358232434835
lfingers 7.12502
lthumb 3.3138433441557646 33.71439825257002
rclavicle -1.5444326117196017e-15 -3.2962022863441273e-15
rhumerus -48.82830034649158 12.86139830185135 -96.40160410301519
rradius 97.13901351220926
rwrist -22.525099806418435
rhand -21.5075864894641 41.64409348313009
rfingers 7.12502
rthumb 4.884293420171134 11.720393787912137
4
root -0.024033136881376316 17.18261282464147 -29.303184030742422 5.576431218252532 -3.966954748874709 -4.84149004527759
lfemur -18.731898936568015 3.2880122806801677 -12.436811702799979
ltibia 101.67998272792073
lfoot 31.861582887310473 -17.49888945196126
ltoes 8.985559138415718
rfemur -28.825393871491677 10.104283871078193 33.41649181293664
rtibia 50.46160362543184
rfoot -19.28978370367629 -14.016484752776876
rtoes 2.1451921314219273
lowerback 18.515880789743836 -1.0601564634619036 2.530087721913747
upperback 0.10764906378589578 -0.4803558668341261 3.622432133526047
thorax -10.30288589745697 -0.2496119102552513 2.66122922853416
lowerneck -20.98368588395432 -2.4854593306055452 -3.054419487741332
upperneck 11.736783247002567 -2.9425202967604913 2.77887361655943
head 7.090691865974729 -1.288329530609346 1.0518879672529111
lclavicle -1.5444325514679047e-15 -3.296202320389488e-15
lhumerus -43.026104260622695 -10.828191606697926 95.36078728797332
lradius 97.00071825164214
lwrist 28.20390898125357
lhand -23.622204822449422 4.851574207225604
lfingers 7.12502
lthumb 2.842215202257659 34.8123942232809
rclavicle -1.5444325514679047e-15 -3.296202320389488e-15
rhumerus -43.927104351294005 14.67929562929496 -96.92490264797634
rradius 97.54271285792183
rwrist -23.799995137279698
rhand -21.405986949276226 41.11819502248705
rfingers 7.12502
rthumb 4.982382997250916 11.196795293479859
5
root -0.025819317641504025 17.10451411700291 -28.398983319778324 5.943449245809568 -3.1274665510395634 -4.6002110758976835
lfemur -24.91229584134758 4.212000305514934 -11.409113089213372
ltibia 105.46398101193164
lfoot 27.979786343830597 -16.885489493851235
ltoes 11.762774831756156
rfemur -25.94129535930508 9.672084897619904 33.603291395345785
rtibia 50.88690345569649
rfoot -22.01378216560188 -15.67128123322831
rtoes -0.026267945908912793
lowerback 18.334181697108054 -1.1000160949436477 2.255338557851914
upperback -0.21718175130936224 -0.5809244169361638 3.665261713994356
thorax -10.5568831789471 -0.2796445802982078 2.898148007362036
lowerneck -20.138091143536105 -2.5216991192408367 -3.1972057358281174
upperneck 11.670983589565676 -2.951390317331062 2.6326447160882176
head 6.931074168967827 -1.3205891932171139 1.0321684144337868
lclavicle -1.5444325527231493e-15 -3.2962023070145734e-15
lhumerus -45.50860232605069 -8.829006257289743 95.31778714927951
lradius 96.26301817013864
lwrist 26.38301483872943
lhand -23.026907010555597 4.517875506553946
lfingers 7.12502
lthumb 3.4171228618228335 34.470195477116825
rclavicle -1.5444325527231493e-15 -3.2962023070145734e-15
rhumerus -40.80580682174863 15.717193981379788 -97.22540181740433
rradius 100.0240101200423
rwrist -24.83029133992137
rhand -19.77019428965309 40.44569697898346
rfingers 7.12502
rthumb 6.561655692079974 10.56739714401196
6
root -0.027220996856917257 17.156013250673976 -27.458386272772863 6.216277664646022 -2.3085983790815314 -4.8616799083019595
lfemur -30.68799215790125 5.217218629001555 -10.323914422207903
ltibia 107.02998193684235
lfoot 23.574187983555895 -16.377790706768966
ltoes 2.3999839807256507
rfemur -21.58959689145304 8.889926710708073 34.290790134157106
rtibia 49.373903709045905
rfoot -24.21488022874362 -15.992981001521487
rtoes 1.0548431667337788
lowerback 17.989383475255174 -1.238765096891004 2.2487585949081583
upperback -0.676806820082887 -0.7117418538262608 4.129837916450119
thorax -10.868179956560853 -0.32250707273070156 3.4580357468724436
lowerneck -17.97760444561452 -2.6145585421084974 -3.9137371100386527
upperneck 10.76488844623147 -2.939110540187336 2.5609650726428983
head 6.293113363093081 -1.37118872652414 1.1448057653872257
lclavicle -1.5444325661124174e-15 -3.296202318565627e-15
lhumerus -48.925399781321815 -6.778180877612287 95.78338610539346
lradius 97.70781660641512
lwrist 25.144418926165777
lhand -21.760611868623485 5.838710625027225
lfingers 7.12502
lthumb 4.6398981188642 35.76789073032741
rclavicle -1.5444325661124174e-15 -3.296202318565627e-15
rhumerus -39.1714087400247 17.175192028031496 -97.9134999665856
rradius 103.84500663361767
rwrist -26.033986849655648
rhand -20.081192860884947 40.099797968914835
rfingers 7.12502
rthumb 6.261447106705636 10.21229815995943
7
root 0.0017658618579319274 17.24841170374675 -26.45068462006592 6.53908584920236 -2.6537276479802183 -5.1639987334286355
lfemur -35.07899057185831 7.220205074845899 -10.175514579526032
ltibia 106.38598171747776
lfoot 17.177992327624953 -15.517591619527474
ltoes -8.726384569240038
rfemur -16.38139973835715 8.733786857808218 34.740789507270804
rtibia 46.355805064963064
rfoot -23.525981003205743 -15.76698127405893
rtoes -2.5910642822132486
lowerback 17.067087976657085 -0.43369304948647114 3.096255942019063
upperback -0.5734871622531874 0.44115378366845803 3.783780818494453
thorax -10.26168640976728 0.1627174817321344 2.2593009386084812
lowerneck -18.68020011206522 -3.2774343987779266 -3.365351384596173
upperneck 10.703288834057537 -3.9461159807766966 2.58718491229248
head 6.41020169966074 -1.8258144263247367 0.9485043913975473
lclavicle -1.5444325587901598e-15 -3.2962023428837187e-15
lhumerus -51.16189805299351 -7.8303585101549125 95.85138631303519
lradius 99.73551487501167
lwrist 26.17991562683568
lhand -20.47571687656536 6.3875585741073575
lfingers 7.12502
lthumb 5.880563167942652 36.28598898514453
rclavicle -1.5444325587901598e-15 -3.2962023428837187e-15
rhumerus -36.93200984030902 15.964393815401063 -98.07809951722201
rradius 108.11700200839233
rwrist -28.577177440318817
rhand -17.458604766849255 40.41229711126961
rfingers 7.12502
rthumb 8.792825247534465 10.615496962070992
